<svg width="28" height="28" viewBox="0 0 16 16" fill="currentColor" xmlns="http://www.w3.org/2000/svg">
  <path d="M 14,1.75 H 2 A 2.0021428,1.990767 0 0 0 0,3.7386359 V 12.261364 A 2.0021428,1.990767 0 0 0 2,14.25 h 12 a 2.0021428,1.990767 0 0 0 2,-1.988636 V 3.7386359 A 2.0021428,1.990767 0 0 0 14,1.75 Z M 13.493571,5.0394172 8.3507141,9.01669 a 0.57142856,0.56818182 0 0 1 -0.7014288,0 L 2.5064286,5.0394172 A 0.57142856,0.56818182 0 1 1 3.207857,4.1424006 L 7.9999997,7.8483664 12.792143,4.1424006 a 0.57142856,0.56818182 0 0 1 0.701428,0.8970166 z"/>
</svg>
