<?xml version="1.0" encoding="UTF-8" standalone="no"?>
<svg
   width="16"
   height="16"
   viewBox="0 0 16 16"
   version="1.1"
   id="svg1601"
   sodipodi:docname="github.svg"
   inkscape:version="1.3.2 (091e20ef0f, 2023-11-25)"
   xmlns:inkscape="http://www.inkscape.org/namespaces/inkscape"
   xmlns:sodipodi="http://sodipodi.sourceforge.net/DTD/sodipodi-0.dtd"
   xmlns="http://www.w3.org/2000/svg"
   xmlns:svg="http://www.w3.org/2000/svg">
  <defs
     id="defs1605" />
  <sodipodi:namedview
     id="namedview1603"
     pagecolor="#ffffff"
     bordercolor="#111111"
     borderopacity="1"
     inkscape:showpageshadow="0"
     inkscape:pageopacity="0"
     inkscape:pagecheckerboard="1"
     inkscape:deskcolor="#d1d1d1"
     showgrid="false"
     inkscape:zoom="85.583332"
     inkscape:cx="2.5647517"
     inkscape:cy="7.4780917"
     inkscape:window-width="3840"
     inkscape:window-height="2123"
     inkscape:window-x="0"
     inkscape:window-y="0"
     inkscape:window-maximized="1"
     inkscape:current-layer="svg1601" />
  <path
     d="M 8,0 C 3.5826667,0 0,3.6725541 0,8.2022425 0,11.826267 2.292,14.900741 5.4713333,15.985487 5.8706667,16.061358 6,15.807088 6,15.591096 V 14.064112 C 3.7746667,14.560348 3.3113333,13.096247 3.3113333,13.096247 2.9473333,12.148205 2.4226667,11.895986 2.4226667,11.895986 1.6966667,11.386763 2.478,11.3977 2.478,11.3977 c 0.8033333,0.05741 1.226,0.845514 1.226,0.845514 0.7133333,1.253576 1.8713333,0.89131 2.328,0.68147 C 6.1033333,12.394955 6.3106667,12.03269 6.54,11.828317 4.7633333,11.619844 2.8953333,10.916501 2.8953333,7.7743589 c 0,-0.896095 0.3126667,-1.6274616 0.824,-2.2016186 -0.082667,-0.2071066 -0.3566666,-1.0416848 0.078,-2.1708602 0,0 0.672,-0.2200935 2.2006667,0.8407298 C 6.636,4.0607936 7.32,3.9698854 8,3.9664678 c 0.68,0.00342 1.3646667,0.094326 2.004,0.2761421 1.527333,-1.0608233 2.198,-0.8407298 2.198,-0.8407298 0.435333,1.1298589 0.161333,1.9644371 0.07867,2.1708602 0.513333,0.574157 0.823333,1.3062071 0.823333,2.2016186 0,3.1503451 -1.871333,3.8441181 -3.6526667,4.0471231 C 9.738,12.075752 10,12.574721 10,13.340264 v 2.250832 c 0,0.218043 0.128,0.474363 0.534,0.393708 C 13.710667,14.89869 16,11.8249 16,8.2022425 16,3.6725541 12.418,0 8,0 Z"
     id="path1599"
     style="fill:#ffffff;fill-opacity:1;stroke-width:0.675041"
     inkscape:export-filename="path1599.png"
     inkscape:export-xdpi="2099.7742"
     inkscape:export-ydpi="2099.7742" />
</svg>
