<?xml version="1.0" encoding="UTF-8" standalone="no"?>
<!-- Created with Inkscape (http://www.inkscape.org/) -->

<svg
   width="16mm"
   height="16mm"
   viewBox="0 0 16 16"
   version="1.1"
   id="svg1"
   inkscape:version="1.3.2 (091e20ef0f, 2023-11-25)"
   sodipodi:docname="mail.svg"
   xmlns:inkscape="http://www.inkscape.org/namespaces/inkscape"
   xmlns:sodipodi="http://sodipodi.sourceforge.net/DTD/sodipodi-0.dtd"
   xmlns="http://www.w3.org/2000/svg"
   xmlns:svg="http://www.w3.org/2000/svg">
  <sodipodi:namedview
     id="namedview1"
     pagecolor="#ffffff"
     bordercolor="#000000"
     borderopacity="0.25"
     inkscape:showpageshadow="2"
     inkscape:pageopacity="0.0"
     inkscape:pagecheckerboard="true"
     inkscape:deskcolor="#d1d1d1"
     inkscape:document-units="mm"
     inkscape:zoom="13.740516"
     inkscape:cx="66.19111"
     inkscape:cy="53.564219"
     inkscape:window-width="3840"
     inkscape:window-height="2123"
     inkscape:window-x="0"
     inkscape:window-y="0"
     inkscape:window-maximized="1"
     inkscape:current-layer="layer1" />
  <defs
     id="defs1" />
  <g
     inkscape:label="Layer 1"
     inkscape:groupmode="layer"
     id="layer1">
    <path
       style="fill:#ffffff;fill-opacity:1;stroke:none;stroke-width:0.0427352;stroke-linecap:round;stroke-linejoin:round;paint-order:stroke fill markers"
       d="M 14,1.75 H 2 A 2.0021428,1.990767 0 0 0 0,3.7386359 V 12.261364 A 2.0021428,1.990767 0 0 0 2,14.25 h 12 a 2.0021428,1.990767 0 0 0 2,-1.988636 V 3.7386359 A 2.0021428,1.990767 0 0 0 14,1.75 Z M 13.493571,5.0394172 8.3507141,9.01669 a 0.57142856,0.56818182 0 0 1 -0.7014288,0 L 2.5064286,5.0394172 A 0.57142856,0.56818182 0 1 1 3.207857,4.1424006 L 7.9999997,7.8483664 12.792143,4.1424006 a 0.57142856,0.56818182 0 0 1 0.701428,0.8970166 z"
       id="path1" />
  </g>
</svg>
